#!OML:ASF H:\Terrain\Patient Classification 1\Walking\steve\steve.ASF
:FULLY-SPECIFIED
:DEGREES
267
root 8.04788 16.4533 25.8058 7.93704 -10.5193 0.623012
lowerback -0.984929 6.04526 -3.625
upperback -3.57872 7.96867 -2.65488
thorax -3.25652 4.03855 -0.886309
lowerneck -11.7825 -1.73426 -3.24771
upperneck 15.0712 -2.54116 4.66136
head 6.63094 -1.0193 1.79855
rclavicle 2.88735e-014 2.78299e-014
rhumerus -19.8096 4.90901 -86.5759
rradius 44.3272
rwrist -20.4877
rhand -19.8407 -40.2698
rfingers 7.12502
rthumb 6.49362 -70.1502
lclavicle 2.88735e-014 2.78299e-014
lhumerus -51.4521 29.4937 51.7555
lradius 13.7291
lwrist -14.7638
lhand -26.8352 -13.3377
lfingers 7.12502
lthumb -0.260962 16.6419
rfemur -16.2111 7.04902 19.0502
rtibia 67.5641
rfoot -6.30654 4.07201
rtoes -11.2273
lfemur -32.2694 5.10993 -25.1376
ltibia 40.7168
lfoot -17.2523 0.920801
ltoes 3.09204
268
root 8.05855 16.4876 26.0047 7.84786 -10.4511 0.544182
lowerback -0.7805 5.94573 -3.54768
upperback -3.69041 7.82504 -2.54525
thorax -3.48968 3.96829 -0.845567
lowerneck -11.02 -1.5735 -2.98434
upperneck 14.8184 -2.34384 4.45945
head 6.40399 -0.937272 1.71045
rclavicle 4.70871e-015 1.98785e-014
rhumerus -21.8772 4.73729 -87.2255
rradius 43.3695
rwrist -19.804
rhand -19.6826 -40.9186
rfingers 7.12502
rthumb 6.64624 -70.7943
lclavicle 4.70871e-015 1.98785e-014
lhumerus -47.7891 27.2842 57.419
lradius 14.5556
lwrist -11.1988
lhand -26.9105 -13.8289
lfingers 7.12502
lthumb -0.333677 16.1506
rfemur -17.8966 6.92654 19.321
rtibia 67.9153
rfoot -8.15895 4.51835
rtoes -14.0052
lfemur -30.9883 4.76609 -25.0765
ltibia 40.1824
lfoot -18.0191 0.814668
ltoes 4.14556
269
root 8.07019 16.5297 26.2072 7.75596 -10.1752 0.475625
lowerback -1.00361 5.7188 -3.40074
upperback -3.44194 7.54685 -2.41329
thorax -3.0997 3.82384 -0.737161
lowerneck -11.0275 -1.63063 -3.3909
upperneck 14.8317 -2.43133 4.94803
head 6.42353 -0.962753 1.92658
rclavicle -7.04443e-015 5.56597e-015
rhumerus -23.3379 4.5712 -87.8163
rradius 42.2257
rwrist -19.0011
rhand -19.8921 -40.9268
rfingers 7.12502
rthumb 6.44398 -70.8088
lclavicle -7.04443e-015 5.56597e-015
lhumerus -43.9755 24.9522 62.9378
lradius 15.8793
lwrist -7.32122
lhand -26.3844 -13.515
lfingers 7.12502
lthumb 0.174506 16.4647
rfemur -19.4976 6.55717 19.621
rtibia 68.0462
rfoot -9.80713 4.58885
rtoes -15.5748
lfemur -29.7151 4.23152 -25.0036
ltibia 39.6091
lfoot -18.6788 0.667591
ltoes 4.94931
270
root 8.08298 16.5596 26.4045 7.49063 -9.78573 0.743701
lowerback -0.978771 5.433 -3.68419
upperback -3.20073 7.1724 -2.28229
thorax -2.90974 3.64241 -0.428331
lowerneck -11.251 -1.80861 -3.8849
upperneck 15.0899 -2.63443 5.2124
head 6.56347 -1.06245 2.07549
rclavicle -5.65294e-014 -1.90833e-014
rhumerus -24.697 4.38574 -88.2198
rradius 40.8128
rwrist -18.0398
rhand -19.2984 -41.1025
rfingers 7.12502
rthumb 7.01711 -70.9662
lclavicle -5.65294e-014 -1.90833e-014
lhumerus -40.5931 22.9399 67.4143
lradius 17.0946
lwrist -3.98271
lhand -25.2725 -12.0059
lfingers 7.12502
lthumb 1.24835 17.9702
rfemur -21.057 6.03577 19.5801
rtibia 68.0666
rfoot -11.4614 4.52326
rtoes -16.2666
lfemur -28.3263 3.59278 -25.3252
ltibia 38.9011
lfoot -19.1158 0.857107
ltoes 4.51445
271
root 8.08881 16.5708 26.6111 7.19893 -9.64667 0.914052
lowerback -0.674545 5.27614 -3.98366
upperback -3.24158 6.94468 -2.15635
thorax -3.16993 3.54016 -0.168647
lowerneck -11.1177 -1.74816 -3.73385
upperneck 15.48 -2.55332 4.95141
head 6.65564 -1.03546 1.97661
rclavicle -3.41164e-014 -1.19271e-015
rhumerus -26.5067 3.98125 -88.6548
rradius 39.3727
rwrist -17.2664
rhand -18.9263 -41.6658
rfingers 7.12502
rthumb 7.37628 -71.5172
lclavicle -3.41164e-014 -1.19271e-015
lhumerus -37.8541 20.7413 70.9885
lradius 18.2066
lwrist -1.25565
lhand -24.1602 -10.1549
lfingers 7.12502
lthumb 2.32266 19.8122
rfemur -22.5919 5.93223 19.625
rtibia 67.9939
rfoot -12.9471 4.54446
rtoes -13.8939
lfemur -26.7811 3.24762 -25.5739
ltibia 38.1436
lfoot -19.6367 0.909109
ltoes 4.50474
272
root 8.10888 16.5857 26.8187 6.91647 -8.90478 1.32131
lowerback 0.251865 4.95812 -4.15306
upperback -3.70291 6.44607 -2.23273
thorax -4.16775 3.30745 -0.260388
lowerneck -10.7524 -1.54888 -3.2363
upperneck 16.0834 -2.33521 4.57306
head 6.76471 -0.933085 1.79693
rclavicle -2.48481e-014 1.47101e-014
rhumerus -29.0937 3.35279 -89.2667
rradius 38.0214
rwrist -16.7403
rhand -19.4213 -41.3327
rfingers 7.12502
rthumb 6.89848 -71.2003
lclavicle -2.48481e-014 1.47101e-014
lhumerus -35.9578 17.695 74.1769
lradius 19.4837
lwrist 2.06748
lhand -24.2223 -10.2801
lfingers 7.12502
lthumb 2.2627 19.6876
rfemur -23.9522 5.06319 19.3442
rtibia 67.7929
rfoot -14.2441 4.49715
rtoes -12.8436
lfemur -25.142 2.56909 -26.1607
ltibia 37.3515
lfoot -20.1927 0.503469
ltoes 4.95486
273
root 8.11754 16.5912 27.0221 6.79304 -8.50796 1.59761
lowerback -0.532304 4.68483 -4.29525
upperback -2.99533 6.15125 -2.20399
thorax -2.99886 3.14679 -0.0210669
lowerneck -11.3652 -1.40976 -2.87549
upperneck 15.8353 -2.11505 4.15278
head 6.77543 -0.83536 1.61792
rclavicle -6.63444e-015 2.22639e-014
rhumerus -29.689 3.33174 -89.8022
rradius 36.2391
rwrist -17.8339
rhand -22.5852 -38.0719
rfingers 7.12502
rthumb 3.84368 -68.017
lclavicle -6.63444e-015 2.22639e-014
lhumerus -32.3501 14.9412 77.8234
lradius 20.8278
lwrist 5.92218
lhand -25.0011 -12.3414
lfingers 7.12502
lthumb 1.5105 17.633
rfemur -25.6061 4.64875 19.2777
rtibia 67.4821
rfoot -15.4708 3.9603
rtoes -14.3822
lfemur -23.7991 2.24097 -26.5943
ltibia 36.6652
lfoot -20.7686 0.436597
ltoes 4.13961
274
root 8.11635 16.5846 27.2242 6.77616 -8.17939 1.78992
lowerback -1.26484 4.49206 -4.46149
upperback -2.48673 5.95853 -2.14495
thorax -2.07862 3.03778 0.23119
lowerneck -11.6645 -1.45817 -3.0586
upperneck 15.7684 -2.13704 4.14456
head 6.809 -0.854674 1.64211
rclavicle 4.0639e-014 -3.02153e-014
rhumerus -30.4461 1.88117 -89.499
rradius 35.4928
rwrist -14.4418
rhand -21.0282 -47.0466
rfingers 7.12502
rthumb 5.34712 -76.9591
lclavicle 4.0639e-014 -3.02153e-014
lhumerus -29.2644 11.9254 80.8105
lradius 22.3533
lwrist 9.39954
lhand -25.0601 -13.3808
lfingers 7.12502
lthumb 1.45351 16.594
rfemur -27.3063 4.38019 19.3661
rtibia 66.9624
rfoot -16.9081 3.37552
rtoes -16.1014
lfemur -22.6671 2.11172 -26.9113
ltibia 36.081
lfoot -21.2313 0.288251
ltoes 3.14436
275
root 8.11942 16.58 27.4201 6.72026 -7.77596 2.12837
lowerback -2.36947 4.27133 -4.59929
upperback -1.58041 5.77286 -2.18746
thorax -0.52884 2.91121 0.410603
lowerneck -12.3456 -1.60466 -3.50186
upperneck 15.4981 -2.30477 4.58951
head 6.85789 -0.916935 1.8396
rclavicle 5.98839e-015 3.97569e-014
rhumerus -30.5337 0.846101 -89.4257
rradius 32.7256
rwrist -14.655
rhand -22.4692 -34.8876
rfingers 7.12502
rthumb 3.95569 -64.8307
lclavicle 5.98839e-015 3.97569e-014
lhumerus -25.5428 9.48696 83.1788
lradius 23.5242
lwrist 11.8869
lhand -24.891 -13.4556
lfingers 7.12502
lthumb 1.61687 16.518
rfemur -28.9028 4.05367 19.2908
rtibia 66.2134
rfoot -18.1553 2.9379
rtoes -15.3424
lfemur -21.7196 1.81954 -27.3378
ltibia 35.7954
lfoot -21.6701 -0.119713
ltoes 3.25901
276
root 8.12636 16.5814 27.6118 6.5888 -7.37434 2.33481
lowerback 0.581769 4.02514 -5.27683
upperback -3.63472 5.15879 -1.97892
thorax -4.37341 2.70989 0.652528
lowerneck -10.526 -1.4451 -3.58027
upperneck 16.7256 -2.16555 4.60309
head 6.92767 -0.869538 1.88414
rclavicle -4.53835e-014 -1.47101e-014
rhumerus -35.7748 2.42406 -91.1172
rradius 31.2106
rwrist -21.2676
rhand -33.0064 -28.4767
rfingers 7.12502
rthumb -6.22043 -58.3654
lclavicle -4.53835e-014 -1.47101e-014
lhumerus -26.9877 6.73817 84.3929
lradius 25.3799
lwrist 14.2038
lhand -24.8429 -13.7278
lfingers 7.12502
lthumb 1.6633 16.2454
rfemur -30.2836 3.84097 19.289
rtibia 65.2163
rfoot -18.9493 2.81345
rtoes -11.8966
lfemur -20.6967 1.50342 -27.61
ltibia 35.4924
lfoot -22.0521 -0.424997
ltoes 3.48061
277
root 8.1269 16.5769 27.7887 6.73083 -6.98244 1.70182
lowerback -1.54065 3.73562 -4.55347
upperback -1.83938 4.9984 -1.69636
thorax -1.26709 2.54322 0.806421
lowerneck -11.7828 -1.36097 -3.2725
upperneck 15.3969 -1.96285 4.21711
head 6.70636 -0.778253 1.71483
rclavicle -6.7065e-014 -1.51076e-014
rhumerus -33.749 -0.251258 -89.8457
rradius 29.8281
rwrist -15.5606
rhand -27.803 -34.3245
rfingers 7.12502
rthumb -1.19561 -64.3009
lclavicle -6.7065e-014 -1.51076e-014
lhumerus -21.5998 4.90569 86.125
lradius 26.1171
lwrist 15.7206
lhand -24.6138 -13.6747
lfingers 7.12502
lthumb 1.8846 16.2968
rfemur -31.8744 3.95296 20.2644
rtibia 63.9945
rfoot -19.6483 2.14374
rtoes -10.9857
lfemur -20.0067 1.30632 -26.9335
ltibia 35.2072
lfoot -22.3125 -0.762072
ltoes 3.86334
278
root 8.14153 16.5804 28.0279 6.38474 -6.40294 1.90612
lowerback 0.0380147 3.42278 -4.95028
upperback -2.97087 4.4425 -1.42606
thorax -3.35063 2.32763 1.14942
lowerneck -10.6051 -1.066 -2.94422
upperneck 16.2995 -1.54011 3.45665
head 6.76474 -0.62786 1.46161
rclavicle -3.33089e-014 1.15295e-014
rhumerus -37.6651 -3.13998 -88.0119
rradius 29.1868
rwrist -9.08931
rhand -21.7524 -37
rfingers 7.12502
rthumb 4.64786 -66.929
lclavicle -3.33089e-014 1.15295e-014
lhumerus -21.7929 2.96258 87.2055
lradius 27.5318
lwrist 17.0673
lhand -24.256 -13.3615
lfingers 7.12502
lthumb 2.23011 16.6065
rfemur -32.5701 3.31911 20.2459
rtibia 62.5935
rfoot -20.6951 1.68773
rtoes -12.8774
lfemur -18.3216 1.16086 -27.263
ltibia 34.6879
lfoot -22.7403 -1.47784
ltoes 5.29507
279
root 8.14358 16.5721 28.2383 6.22434 -5.9699 2.19223
lowerback -1.52008 3.23751 -4.91576
upperback -1.53397 4.34912 -1.51575
thorax -0.974473 2.2144 1.20542
lowerneck -12.6059 -1.04708 -2.38039
upperneck 16.237 -1.48639 2.9513
head 7.08658 -0.594454 1.20502
rclavicle -5.42682e-014 2.50469e-014
rhumerus -36.8594 -5.91586 -86.7601
rradius 27.3153
rwrist -5.02461
rhand -18.8815 -38.0138
rfingers 7.12502
rthumb 7.41953 -67.8637
lclavicle -5.42682e-014 2.50469e-014
lhumerus -17.3504 0.583918 88.2449
lradius 28.4937
lwrist 18.44
lhand -23.9521 -13.2969
lfingers 7.12502
lthumb 2.52359 16.6679
rfemur -33.7243 2.94641 20.1896
rtibia 61.1189
rfoot -21.1818 0.860853
rtoes -15.1997
lfemur -16.9618 1.05755 -27.62
ltibia 33.983
lfoot -22.9708 -2.02955
ltoes 6.78346
